<mxfile host="app.diagrams.net" modified="2024-02-17T09:19:01.452Z" agent="Mozilla/5.0 (Windows NT 10.0; Win64; x64; rv:122.0) Gecko/20100101 Firefox/122.0" etag="sErZ1O97bugh7lrDeLUe" version="23.1.5" type="github">
  <diagram id="w-nJ-eyJlRG34p8Wt6uV" name="第 1 页">
    <mxGraphModel dx="3760" dy="1526" grid="1" gridSize="10" guides="1" tooltips="1" connect="1" arrows="1" fold="1" page="0" pageScale="1" pageWidth="827" pageHeight="1169" math="0" shadow="0">
      <root>
        <mxCell id="0" />
        <mxCell id="1" parent="0" />
        <mxCell id="O51LmECOLkoYSxK84_-_-6" style="edgeStyle=orthogonalEdgeStyle;rounded=0;orthogonalLoop=1;jettySize=auto;html=1;exitX=0.5;exitY=1;exitDx=0;exitDy=0;" parent="1" source="O51LmECOLkoYSxK84_-_-1" target="O51LmECOLkoYSxK84_-_-4" edge="1">
          <mxGeometry relative="1" as="geometry" />
        </mxCell>
        <mxCell id="O51LmECOLkoYSxK84_-_-15" style="edgeStyle=orthogonalEdgeStyle;rounded=0;orthogonalLoop=1;jettySize=auto;html=1;entryX=0.5;entryY=0;entryDx=0;entryDy=0;" parent="1" source="O51LmECOLkoYSxK84_-_-1" target="O51LmECOLkoYSxK84_-_-14" edge="1">
          <mxGeometry relative="1" as="geometry" />
        </mxCell>
        <mxCell id="O51LmECOLkoYSxK84_-_-43" style="edgeStyle=orthogonalEdgeStyle;rounded=0;orthogonalLoop=1;jettySize=auto;html=1;entryX=0.5;entryY=0;entryDx=0;entryDy=0;" parent="1" source="O51LmECOLkoYSxK84_-_-1" target="O51LmECOLkoYSxK84_-_-42" edge="1">
          <mxGeometry relative="1" as="geometry">
            <Array as="points">
              <mxPoint x="1340" y="110" />
              <mxPoint x="-680" y="110" />
            </Array>
          </mxGeometry>
        </mxCell>
        <mxCell id="4LCnpBkKu6pFPKdTCTja-13" style="edgeStyle=orthogonalEdgeStyle;rounded=0;orthogonalLoop=1;jettySize=auto;html=1;exitX=0.5;exitY=1;exitDx=0;exitDy=0;entryX=0.5;entryY=0;entryDx=0;entryDy=0;" parent="1" source="O51LmECOLkoYSxK84_-_-1" target="O51LmECOLkoYSxK84_-_-5" edge="1">
          <mxGeometry relative="1" as="geometry" />
        </mxCell>
        <mxCell id="O51LmECOLkoYSxK84_-_-1" value="龙与地下城" style="rounded=0;whiteSpace=wrap;html=1;" parent="1" vertex="1">
          <mxGeometry x="1280" width="120" height="60" as="geometry" />
        </mxCell>
        <mxCell id="O51LmECOLkoYSxK84_-_-41" style="edgeStyle=orthogonalEdgeStyle;rounded=0;orthogonalLoop=1;jettySize=auto;html=1;exitX=0.25;exitY=1;exitDx=0;exitDy=0;" parent="1" source="O51LmECOLkoYSxK84_-_-4" target="O51LmECOLkoYSxK84_-_-29" edge="1">
          <mxGeometry relative="1" as="geometry" />
        </mxCell>
        <mxCell id="O51LmECOLkoYSxK84_-_-58" style="edgeStyle=orthogonalEdgeStyle;rounded=0;orthogonalLoop=1;jettySize=auto;html=1;" parent="1" source="O51LmECOLkoYSxK84_-_-4" target="O51LmECOLkoYSxK84_-_-57" edge="1">
          <mxGeometry relative="1" as="geometry" />
        </mxCell>
        <mxCell id="4LCnpBkKu6pFPKdTCTja-17" style="edgeStyle=orthogonalEdgeStyle;rounded=0;orthogonalLoop=1;jettySize=auto;html=1;exitX=0.75;exitY=1;exitDx=0;exitDy=0;entryX=0.25;entryY=0;entryDx=0;entryDy=0;" parent="1" source="O51LmECOLkoYSxK84_-_-4" target="O51LmECOLkoYSxK84_-_-8" edge="1">
          <mxGeometry relative="1" as="geometry" />
        </mxCell>
        <mxCell id="O51LmECOLkoYSxK84_-_-4" value="创世纪" style="rounded=0;whiteSpace=wrap;html=1;fillColor=#d5e8d4;strokeColor=#82b366;" parent="1" vertex="1">
          <mxGeometry x="160" y="160" width="120" height="60" as="geometry" />
        </mxCell>
        <mxCell id="4LCnpBkKu6pFPKdTCTja-19" style="edgeStyle=orthogonalEdgeStyle;rounded=0;orthogonalLoop=1;jettySize=auto;html=1;exitX=0.5;exitY=1;exitDx=0;exitDy=0;entryX=0.5;entryY=0;entryDx=0;entryDy=0;" parent="1" source="O51LmECOLkoYSxK84_-_-5" target="O51LmECOLkoYSxK84_-_-8" edge="1">
          <mxGeometry relative="1" as="geometry">
            <Array as="points" />
          </mxGeometry>
        </mxCell>
        <mxCell id="GkkZgiXeQc9Gm0APtSh3-3" style="edgeStyle=orthogonalEdgeStyle;rounded=0;orthogonalLoop=1;jettySize=auto;html=1;exitX=1;exitY=0.5;exitDx=0;exitDy=0;entryX=0.5;entryY=0;entryDx=0;entryDy=0;" edge="1" parent="1" source="O51LmECOLkoYSxK84_-_-5" target="GkkZgiXeQc9Gm0APtSh3-2">
          <mxGeometry relative="1" as="geometry" />
        </mxCell>
        <mxCell id="O51LmECOLkoYSxK84_-_-5" value="巫术" style="rounded=0;whiteSpace=wrap;html=1;fillColor=#d5e8d4;strokeColor=#82b366;" parent="1" vertex="1">
          <mxGeometry x="540" y="160" width="120" height="60" as="geometry" />
        </mxCell>
        <mxCell id="4LCnpBkKu6pFPKdTCTja-15" style="edgeStyle=orthogonalEdgeStyle;rounded=0;orthogonalLoop=1;jettySize=auto;html=1;exitX=0.5;exitY=1;exitDx=0;exitDy=0;entryX=0.5;entryY=0;entryDx=0;entryDy=0;" parent="1" source="O51LmECOLkoYSxK84_-_-8" target="EsOjQUVbrkSsDcICeVrX-1" edge="1">
          <mxGeometry relative="1" as="geometry" />
        </mxCell>
        <mxCell id="4LCnpBkKu6pFPKdTCTja-21" style="edgeStyle=orthogonalEdgeStyle;rounded=0;orthogonalLoop=1;jettySize=auto;html=1;exitX=0;exitY=0.5;exitDx=0;exitDy=0;entryX=0.25;entryY=0;entryDx=0;entryDy=0;" parent="1" source="O51LmECOLkoYSxK84_-_-8" target="4LCnpBkKu6pFPKdTCTja-20" edge="1">
          <mxGeometry relative="1" as="geometry" />
        </mxCell>
        <mxCell id="O51LmECOLkoYSxK84_-_-8" value="&lt;div&gt;勇者斗恶龙&lt;/div&gt;&lt;div&gt;（JRPG里程碑）&lt;br&gt;&lt;/div&gt;" style="rounded=0;whiteSpace=wrap;html=1;fillColor=#d5e8d4;strokeColor=#82b366;" parent="1" vertex="1">
          <mxGeometry x="540" y="305" width="120" height="60" as="geometry" />
        </mxCell>
        <mxCell id="O51LmECOLkoYSxK84_-_-20" style="edgeStyle=orthogonalEdgeStyle;rounded=0;orthogonalLoop=1;jettySize=auto;html=1;entryX=0.5;entryY=0;entryDx=0;entryDy=0;" parent="1" source="O51LmECOLkoYSxK84_-_-14" target="O51LmECOLkoYSxK84_-_-16" edge="1">
          <mxGeometry relative="1" as="geometry">
            <Array as="points">
              <mxPoint x="1340" y="250" />
              <mxPoint x="1340" y="250" />
            </Array>
          </mxGeometry>
        </mxCell>
        <mxCell id="O51LmECOLkoYSxK84_-_-62" style="edgeStyle=orthogonalEdgeStyle;rounded=0;orthogonalLoop=1;jettySize=auto;html=1;exitX=0.75;exitY=1;exitDx=0;exitDy=0;entryX=0.5;entryY=0;entryDx=0;entryDy=0;" parent="1" source="O51LmECOLkoYSxK84_-_-14" target="O51LmECOLkoYSxK84_-_-22" edge="1">
          <mxGeometry relative="1" as="geometry" />
        </mxCell>
        <mxCell id="O51LmECOLkoYSxK84_-_-14" value="DND规则" style="rounded=0;whiteSpace=wrap;html=1;fillColor=#d5e8d4;strokeColor=#82b366;" parent="1" vertex="1">
          <mxGeometry x="1280" y="160" width="120" height="60" as="geometry" />
        </mxCell>
        <mxCell id="O51LmECOLkoYSxK84_-_-16" value="金盒系列" style="rounded=0;whiteSpace=wrap;html=1;" parent="1" vertex="1">
          <mxGeometry x="1280" y="280" width="120" height="60" as="geometry" />
        </mxCell>
        <mxCell id="GkkZgiXeQc9Gm0APtSh3-20" style="edgeStyle=orthogonalEdgeStyle;rounded=0;orthogonalLoop=1;jettySize=auto;html=1;exitX=0.5;exitY=1;exitDx=0;exitDy=0;" edge="1" parent="1" source="O51LmECOLkoYSxK84_-_-17" target="4LCnpBkKu6pFPKdTCTja-29">
          <mxGeometry relative="1" as="geometry" />
        </mxCell>
        <mxCell id="GkkZgiXeQc9Gm0APtSh3-21" style="edgeStyle=orthogonalEdgeStyle;rounded=0;orthogonalLoop=1;jettySize=auto;html=1;exitX=0.5;exitY=1;exitDx=0;exitDy=0;" edge="1" parent="1" source="O51LmECOLkoYSxK84_-_-17" target="GkkZgiXeQc9Gm0APtSh3-22">
          <mxGeometry relative="1" as="geometry">
            <mxPoint x="1420.0000000000005" y="470" as="targetPoint" />
          </mxGeometry>
        </mxCell>
        <mxCell id="O51LmECOLkoYSxK84_-_-17" value="&lt;div&gt;博德之门1/2&lt;/div&gt;无冬之夜" style="rounded=0;whiteSpace=wrap;html=1;" parent="1" vertex="1">
          <mxGeometry x="1280" y="340" width="120" height="60" as="geometry" />
        </mxCell>
        <mxCell id="O51LmECOLkoYSxK84_-_-19" value="博德之门3" style="rounded=0;whiteSpace=wrap;html=1;fillColor=#e51400;fontColor=#ffffff;strokeColor=#B20000;" parent="1" vertex="1">
          <mxGeometry x="1160" y="340" width="120" height="60" as="geometry" />
        </mxCell>
        <mxCell id="4LCnpBkKu6pFPKdTCTja-23" style="edgeStyle=orthogonalEdgeStyle;rounded=0;orthogonalLoop=1;jettySize=auto;html=1;exitX=0.5;exitY=1;exitDx=0;exitDy=0;entryX=0.5;entryY=0;entryDx=0;entryDy=0;" parent="1" source="O51LmECOLkoYSxK84_-_-22" target="O51LmECOLkoYSxK84_-_-23" edge="1">
          <mxGeometry relative="1" as="geometry" />
        </mxCell>
        <mxCell id="O51LmECOLkoYSxK84_-_-22" value="异域镇魂曲" style="rounded=0;whiteSpace=wrap;html=1;" parent="1" vertex="1">
          <mxGeometry x="1520" y="280" width="120" height="60" as="geometry" />
        </mxCell>
        <mxCell id="O51LmECOLkoYSxK84_-_-23" value="极乐迪斯科" style="rounded=0;whiteSpace=wrap;html=1;" parent="1" vertex="1">
          <mxGeometry x="1520" y="380" width="120" height="60" as="geometry" />
        </mxCell>
        <mxCell id="O51LmECOLkoYSxK84_-_-40" style="edgeStyle=orthogonalEdgeStyle;rounded=0;orthogonalLoop=1;jettySize=auto;html=1;entryX=0.5;entryY=0;entryDx=0;entryDy=0;" parent="1" source="O51LmECOLkoYSxK84_-_-26" target="O51LmECOLkoYSxK84_-_-39" edge="1">
          <mxGeometry relative="1" as="geometry" />
        </mxCell>
        <mxCell id="GkkZgiXeQc9Gm0APtSh3-26" style="edgeStyle=orthogonalEdgeStyle;rounded=0;orthogonalLoop=1;jettySize=auto;html=1;exitX=0.5;exitY=1;exitDx=0;exitDy=0;" edge="1" parent="1" source="O51LmECOLkoYSxK84_-_-26" target="O51LmECOLkoYSxK84_-_-37">
          <mxGeometry relative="1" as="geometry" />
        </mxCell>
        <mxCell id="O51LmECOLkoYSxK84_-_-26" value="地下创世纪：冥河深渊" style="rounded=0;whiteSpace=wrap;html=1;" parent="1" vertex="1">
          <mxGeometry x="155" y="840" width="140" height="60" as="geometry" />
        </mxCell>
        <mxCell id="O51LmECOLkoYSxK84_-_-32" style="edgeStyle=orthogonalEdgeStyle;rounded=0;orthogonalLoop=1;jettySize=auto;html=1;entryX=0.5;entryY=0;entryDx=0;entryDy=0;" parent="1" source="O51LmECOLkoYSxK84_-_-29" target="O51LmECOLkoYSxK84_-_-31" edge="1">
          <mxGeometry relative="1" as="geometry" />
        </mxCell>
        <mxCell id="O51LmECOLkoYSxK84_-_-29" value="&lt;div&gt;德鲁阿加之塔&lt;/div&gt;&lt;div&gt;（动作RPG里程碑）&lt;br&gt;&lt;/div&gt;" style="rounded=0;whiteSpace=wrap;html=1;fillColor=#d5e8d4;strokeColor=#82b366;" parent="1" vertex="1">
          <mxGeometry x="-315" y="305" width="220" height="90" as="geometry" />
        </mxCell>
        <mxCell id="O51LmECOLkoYSxK84_-_-35" style="edgeStyle=orthogonalEdgeStyle;rounded=0;orthogonalLoop=1;jettySize=auto;html=1;exitX=0.5;exitY=1;exitDx=0;exitDy=0;entryX=0.5;entryY=0;entryDx=0;entryDy=0;" parent="1" source="O51LmECOLkoYSxK84_-_-31" target="O51LmECOLkoYSxK84_-_-33" edge="1">
          <mxGeometry relative="1" as="geometry" />
        </mxCell>
        <mxCell id="O51LmECOLkoYSxK84_-_-31" value="&lt;div&gt;塞尔达传说&lt;/div&gt;&lt;div&gt;（动作冒险里程碑）&lt;br&gt;&lt;/div&gt;" style="rounded=0;whiteSpace=wrap;html=1;fillColor=#d5e8d4;strokeColor=#82b366;" parent="1" vertex="1">
          <mxGeometry x="-265" y="480" width="120" height="60" as="geometry" />
        </mxCell>
        <mxCell id="O51LmECOLkoYSxK84_-_-52" style="edgeStyle=orthogonalEdgeStyle;rounded=0;orthogonalLoop=1;jettySize=auto;html=1;exitX=0.25;exitY=1;exitDx=0;exitDy=0;entryX=0.75;entryY=0;entryDx=0;entryDy=0;" parent="1" source="O51LmECOLkoYSxK84_-_-33" target="O51LmECOLkoYSxK84_-_-46" edge="1">
          <mxGeometry relative="1" as="geometry" />
        </mxCell>
        <mxCell id="O51LmECOLkoYSxK84_-_-54" style="edgeStyle=orthogonalEdgeStyle;rounded=0;orthogonalLoop=1;jettySize=auto;html=1;exitX=0.75;exitY=1;exitDx=0;exitDy=0;entryX=0.5;entryY=0;entryDx=0;entryDy=0;" parent="1" source="O51LmECOLkoYSxK84_-_-33" target="O51LmECOLkoYSxK84_-_-26" edge="1">
          <mxGeometry relative="1" as="geometry">
            <Array as="points">
              <mxPoint x="-175" y="780" />
              <mxPoint x="225" y="780" />
            </Array>
          </mxGeometry>
        </mxCell>
        <mxCell id="O51LmECOLkoYSxK84_-_-55" style="edgeStyle=orthogonalEdgeStyle;rounded=0;orthogonalLoop=1;jettySize=auto;html=1;exitX=0.5;exitY=1;exitDx=0;exitDy=0;" parent="1" source="O51LmECOLkoYSxK84_-_-33" target="O51LmECOLkoYSxK84_-_-48" edge="1">
          <mxGeometry relative="1" as="geometry" />
        </mxCell>
        <mxCell id="O51LmECOLkoYSxK84_-_-33" value="Times of Lore" style="rounded=0;whiteSpace=wrap;html=1;" parent="1" vertex="1">
          <mxGeometry x="-265" y="630" width="120" height="60" as="geometry" />
        </mxCell>
        <mxCell id="EsOjQUVbrkSsDcICeVrX-4" style="edgeStyle=orthogonalEdgeStyle;rounded=0;orthogonalLoop=1;jettySize=auto;html=1;exitX=0.5;exitY=1;exitDx=0;exitDy=0;entryX=0.5;entryY=0;entryDx=0;entryDy=0;" parent="1" source="O51LmECOLkoYSxK84_-_-37" target="EsOjQUVbrkSsDcICeVrX-3" edge="1">
          <mxGeometry relative="1" as="geometry">
            <Array as="points">
              <mxPoint x="388.75" y="1090" />
              <mxPoint x="323.75" y="1090" />
            </Array>
          </mxGeometry>
        </mxCell>
        <mxCell id="GkkZgiXeQc9Gm0APtSh3-25" style="edgeStyle=orthogonalEdgeStyle;rounded=0;orthogonalLoop=1;jettySize=auto;html=1;exitX=0.5;exitY=1;exitDx=0;exitDy=0;" edge="1" parent="1" source="O51LmECOLkoYSxK84_-_-37" target="GkkZgiXeQc9Gm0APtSh3-12">
          <mxGeometry relative="1" as="geometry" />
        </mxCell>
        <mxCell id="O51LmECOLkoYSxK84_-_-37" value="上古卷轴系列" style="rounded=0;whiteSpace=wrap;html=1;fillColor=#e51400;fontColor=#ffffff;strokeColor=#B20000;" parent="1" vertex="1">
          <mxGeometry x="328.75" y="990" width="120" height="60" as="geometry" />
        </mxCell>
        <mxCell id="GkkZgiXeQc9Gm0APtSh3-7" style="edgeStyle=orthogonalEdgeStyle;rounded=0;orthogonalLoop=1;jettySize=auto;html=1;exitX=0.5;exitY=1;exitDx=0;exitDy=0;" edge="1" parent="1" source="O51LmECOLkoYSxK84_-_-39" target="GkkZgiXeQc9Gm0APtSh3-6">
          <mxGeometry relative="1" as="geometry" />
        </mxCell>
        <mxCell id="GkkZgiXeQc9Gm0APtSh3-9" style="edgeStyle=orthogonalEdgeStyle;rounded=0;orthogonalLoop=1;jettySize=auto;html=1;exitX=0.5;exitY=1;exitDx=0;exitDy=0;entryX=0.5;entryY=0;entryDx=0;entryDy=0;" edge="1" parent="1" source="O51LmECOLkoYSxK84_-_-39" target="GkkZgiXeQc9Gm0APtSh3-8">
          <mxGeometry relative="1" as="geometry" />
        </mxCell>
        <mxCell id="O51LmECOLkoYSxK84_-_-39" value="沉浸式模拟类型" style="rounded=0;whiteSpace=wrap;html=1;fillColor=#d5e8d4;strokeColor=#82b366;" parent="1" vertex="1">
          <mxGeometry x="35" y="990" width="120" height="60" as="geometry" />
        </mxCell>
        <mxCell id="O51LmECOLkoYSxK84_-_-44" style="edgeStyle=orthogonalEdgeStyle;rounded=0;orthogonalLoop=1;jettySize=auto;html=1;exitX=0.5;exitY=1;exitDx=0;exitDy=0;entryX=0.5;entryY=0;entryDx=0;entryDy=0;" parent="1" source="O51LmECOLkoYSxK84_-_-42" target="O51LmECOLkoYSxK84_-_-46" edge="1">
          <mxGeometry relative="1" as="geometry">
            <mxPoint x="-680.3333333333333" y="710" as="targetPoint" />
          </mxGeometry>
        </mxCell>
        <mxCell id="O51LmECOLkoYSxK84_-_-42" value="Roguelike" style="rounded=0;whiteSpace=wrap;html=1;fillColor=#d5e8d4;strokeColor=#82b366;" parent="1" vertex="1">
          <mxGeometry x="-740" y="160" width="120" height="60" as="geometry" />
        </mxCell>
        <mxCell id="O51LmECOLkoYSxK84_-_-46" value="暗黑破坏神" style="rounded=0;whiteSpace=wrap;html=1;" parent="1" vertex="1">
          <mxGeometry x="-740" y="870" width="120" height="60" as="geometry" />
        </mxCell>
        <mxCell id="O51LmECOLkoYSxK84_-_-51" style="edgeStyle=orthogonalEdgeStyle;rounded=0;orthogonalLoop=1;jettySize=auto;html=1;exitX=0.5;exitY=1;exitDx=0;exitDy=0;" parent="1" source="O51LmECOLkoYSxK84_-_-48" target="O51LmECOLkoYSxK84_-_-50" edge="1">
          <mxGeometry relative="1" as="geometry" />
        </mxCell>
        <mxCell id="O51LmECOLkoYSxK84_-_-48" value="博德之门：黑暗联盟" style="rounded=0;whiteSpace=wrap;html=1;" parent="1" vertex="1">
          <mxGeometry x="-265" y="840" width="120" height="60" as="geometry" />
        </mxCell>
        <mxCell id="O51LmECOLkoYSxK84_-_-50" value="巫师系列" style="rounded=0;whiteSpace=wrap;html=1;fillColor=#e51400;fontColor=#ffffff;strokeColor=#B20000;" parent="1" vertex="1">
          <mxGeometry x="-265" y="980" width="120" height="60" as="geometry" />
        </mxCell>
        <mxCell id="O51LmECOLkoYSxK84_-_-60" style="edgeStyle=orthogonalEdgeStyle;rounded=0;orthogonalLoop=1;jettySize=auto;html=1;entryX=0.5;entryY=0;entryDx=0;entryDy=0;" parent="1" source="O51LmECOLkoYSxK84_-_-57" target="O51LmECOLkoYSxK84_-_-59" edge="1">
          <mxGeometry relative="1" as="geometry" />
        </mxCell>
        <mxCell id="O51LmECOLkoYSxK84_-_-57" value="废土" style="rounded=0;whiteSpace=wrap;html=1;" parent="1" vertex="1">
          <mxGeometry x="160" y="320" width="120" height="60" as="geometry" />
        </mxCell>
        <mxCell id="O51LmECOLkoYSxK84_-_-59" value="辐射1/2" style="rounded=0;whiteSpace=wrap;html=1;" parent="1" vertex="1">
          <mxGeometry x="160" y="420" width="120" height="60" as="geometry" />
        </mxCell>
        <mxCell id="O51LmECOLkoYSxK84_-_-61" value="寻路者：拥王者" style="rounded=0;whiteSpace=wrap;html=1;" parent="1" vertex="1">
          <mxGeometry x="1160" y="280" width="120" height="60" as="geometry" />
        </mxCell>
        <mxCell id="4LCnpBkKu6pFPKdTCTja-2" style="edgeStyle=orthogonalEdgeStyle;rounded=0;orthogonalLoop=1;jettySize=auto;html=1;exitX=1;exitY=0.5;exitDx=0;exitDy=0;entryX=0.5;entryY=0;entryDx=0;entryDy=0;" parent="1" source="EsOjQUVbrkSsDcICeVrX-1" target="4LCnpBkKu6pFPKdTCTja-1" edge="1">
          <mxGeometry relative="1" as="geometry" />
        </mxCell>
        <mxCell id="4LCnpBkKu6pFPKdTCTja-22" style="edgeStyle=orthogonalEdgeStyle;rounded=0;orthogonalLoop=1;jettySize=auto;html=1;exitX=0;exitY=0.5;exitDx=0;exitDy=0;entryX=0.75;entryY=0;entryDx=0;entryDy=0;" parent="1" source="EsOjQUVbrkSsDcICeVrX-1" target="4LCnpBkKu6pFPKdTCTja-20" edge="1">
          <mxGeometry relative="1" as="geometry" />
        </mxCell>
        <mxCell id="GkkZgiXeQc9Gm0APtSh3-18" style="edgeStyle=orthogonalEdgeStyle;rounded=0;orthogonalLoop=1;jettySize=auto;html=1;exitX=0.75;exitY=1;exitDx=0;exitDy=0;" edge="1" parent="1" source="EsOjQUVbrkSsDcICeVrX-1" target="4LCnpBkKu6pFPKdTCTja-25">
          <mxGeometry relative="1" as="geometry" />
        </mxCell>
        <mxCell id="GkkZgiXeQc9Gm0APtSh3-23" style="edgeStyle=orthogonalEdgeStyle;rounded=0;orthogonalLoop=1;jettySize=auto;html=1;exitX=0.25;exitY=1;exitDx=0;exitDy=0;entryX=0.5;entryY=0;entryDx=0;entryDy=0;" edge="1" parent="1" source="EsOjQUVbrkSsDcICeVrX-1" target="GkkZgiXeQc9Gm0APtSh3-17">
          <mxGeometry relative="1" as="geometry" />
        </mxCell>
        <mxCell id="EsOjQUVbrkSsDcICeVrX-1" value="最终幻想" style="rounded=0;whiteSpace=wrap;html=1;fillColor=#e51400;fontColor=#ffffff;strokeColor=#B20000;" parent="1" vertex="1">
          <mxGeometry x="518.75" y="412.5" width="162.5" height="60" as="geometry" />
        </mxCell>
        <mxCell id="EsOjQUVbrkSsDcICeVrX-3" value="Kenshi" style="rounded=0;whiteSpace=wrap;html=1;fillColor=#e51400;fontColor=#ffffff;strokeColor=#B20000;" parent="1" vertex="1">
          <mxGeometry x="263.75" y="1230" width="120" height="60" as="geometry" />
        </mxCell>
        <mxCell id="4LCnpBkKu6pFPKdTCTja-4" style="edgeStyle=orthogonalEdgeStyle;rounded=0;orthogonalLoop=1;jettySize=auto;html=1;exitX=0.5;exitY=1;exitDx=0;exitDy=0;entryX=0.5;entryY=0;entryDx=0;entryDy=0;" parent="1" source="4LCnpBkKu6pFPKdTCTja-1" target="4LCnpBkKu6pFPKdTCTja-3" edge="1">
          <mxGeometry relative="1" as="geometry" />
        </mxCell>
        <mxCell id="4LCnpBkKu6pFPKdTCTja-1" value="&lt;div&gt;最终幻想传奇&lt;/div&gt;&lt;div&gt;（沙加系列）&lt;/div&gt;" style="rounded=0;whiteSpace=wrap;html=1;" parent="1" vertex="1">
          <mxGeometry x="695" y="535" width="80" height="60" as="geometry" />
        </mxCell>
        <mxCell id="4LCnpBkKu6pFPKdTCTja-3" value="宝可梦系列" style="rounded=0;whiteSpace=wrap;html=1;" parent="1" vertex="1">
          <mxGeometry x="700" y="640" width="70" height="60" as="geometry" />
        </mxCell>
        <mxCell id="4LCnpBkKu6pFPKdTCTja-16" style="edgeStyle=orthogonalEdgeStyle;rounded=0;orthogonalLoop=1;jettySize=auto;html=1;exitX=1;exitY=0.5;exitDx=0;exitDy=0;entryX=1;entryY=0.5;entryDx=0;entryDy=0;" parent="1" source="4LCnpBkKu6pFPKdTCTja-8" target="4LCnpBkKu6pFPKdTCTja-3" edge="1">
          <mxGeometry relative="1" as="geometry" />
        </mxCell>
        <mxCell id="4LCnpBkKu6pFPKdTCTja-8" value="&lt;div&gt;勇者斗恶龙5&lt;/div&gt;" style="rounded=0;whiteSpace=wrap;html=1;" parent="1" vertex="1">
          <mxGeometry x="660" y="305" width="50" height="60" as="geometry" />
        </mxCell>
        <mxCell id="4LCnpBkKu6pFPKdTCTja-20" value="时空之轮" style="rounded=0;whiteSpace=wrap;html=1;" parent="1" vertex="1">
          <mxGeometry x="445" y="535" width="70" height="60" as="geometry" />
        </mxCell>
        <mxCell id="4LCnpBkKu6pFPKdTCTja-27" style="edgeStyle=orthogonalEdgeStyle;rounded=0;orthogonalLoop=1;jettySize=auto;html=1;exitX=0.5;exitY=1;exitDx=0;exitDy=0;entryX=0.5;entryY=0;entryDx=0;entryDy=0;" parent="1" source="4LCnpBkKu6pFPKdTCTja-25" target="4LCnpBkKu6pFPKdTCTja-26" edge="1">
          <mxGeometry relative="1" as="geometry" />
        </mxCell>
        <mxCell id="4LCnpBkKu6pFPKdTCTja-25" value="圣剑传说" style="rounded=0;whiteSpace=wrap;html=1;" parent="1" vertex="1">
          <mxGeometry x="610" y="535" width="60" height="60" as="geometry" />
        </mxCell>
        <mxCell id="4LCnpBkKu6pFPKdTCTja-26" value="&lt;h1 dir=&quot;ltr&quot; lang=&quot;zh-Hans-CN&quot; class=&quot;firstHeading mw-first-heading&quot; id=&quot;firstHeading&quot;&gt;&lt;font style=&quot;font-size: 12px;&quot;&gt;&lt;span style=&quot;font-weight: normal;&quot;&gt;放浪冒险谭&lt;/span&gt;&lt;/font&gt;&lt;/h1&gt;" style="rounded=0;whiteSpace=wrap;html=1;" parent="1" vertex="1">
          <mxGeometry x="605" y="640" width="70" height="60" as="geometry" />
        </mxCell>
        <mxCell id="4LCnpBkKu6pFPKdTCTja-30" style="edgeStyle=orthogonalEdgeStyle;rounded=0;orthogonalLoop=1;jettySize=auto;html=1;exitX=0.5;exitY=1;exitDx=0;exitDy=0;" parent="1" source="4LCnpBkKu6pFPKdTCTja-29" target="4LCnpBkKu6pFPKdTCTja-31" edge="1">
          <mxGeometry relative="1" as="geometry">
            <mxPoint x="1240" y="680" as="targetPoint" />
          </mxGeometry>
        </mxCell>
        <mxCell id="4LCnpBkKu6pFPKdTCTja-29" value="星球大战：旧共和国武士" style="rounded=0;whiteSpace=wrap;html=1;" parent="1" vertex="1">
          <mxGeometry x="1170" y="470" width="140" height="60" as="geometry" />
        </mxCell>
        <mxCell id="4LCnpBkKu6pFPKdTCTja-31" value="质量效应" style="rounded=0;whiteSpace=wrap;html=1;" parent="1" vertex="1">
          <mxGeometry x="1180" y="575" width="120" height="60" as="geometry" />
        </mxCell>
        <mxCell id="GkkZgiXeQc9Gm0APtSh3-4" style="edgeStyle=orthogonalEdgeStyle;rounded=0;orthogonalLoop=1;jettySize=auto;html=1;exitX=0.5;exitY=1;exitDx=0;exitDy=0;" edge="1" parent="1" source="GkkZgiXeQc9Gm0APtSh3-2" target="GkkZgiXeQc9Gm0APtSh3-5">
          <mxGeometry relative="1" as="geometry">
            <mxPoint x="870" y="557.5" as="targetPoint" />
          </mxGeometry>
        </mxCell>
        <mxCell id="GkkZgiXeQc9Gm0APtSh3-2" value="真女神转生" style="rounded=0;whiteSpace=wrap;html=1;" vertex="1" parent="1">
          <mxGeometry x="810" y="412.5" width="70" height="60" as="geometry" />
        </mxCell>
        <mxCell id="GkkZgiXeQc9Gm0APtSh3-5" value="女神异闻录" style="rounded=0;whiteSpace=wrap;html=1;" vertex="1" parent="1">
          <mxGeometry x="810" y="535" width="70" height="60" as="geometry" />
        </mxCell>
        <mxCell id="GkkZgiXeQc9Gm0APtSh3-6" value="&lt;div&gt;网络奇兵&lt;/div&gt;&lt;div&gt;神偷：黑暗计划&lt;/div&gt;&lt;div&gt;杀出重围&lt;br&gt;&lt;/div&gt;" style="rounded=0;whiteSpace=wrap;html=1;" vertex="1" parent="1">
          <mxGeometry x="-40" y="1130" width="120" height="60" as="geometry" />
        </mxCell>
        <mxCell id="GkkZgiXeQc9Gm0APtSh3-10" style="edgeStyle=orthogonalEdgeStyle;rounded=0;orthogonalLoop=1;jettySize=auto;html=1;exitX=0.5;exitY=1;exitDx=0;exitDy=0;" edge="1" parent="1" source="GkkZgiXeQc9Gm0APtSh3-8" target="GkkZgiXeQc9Gm0APtSh3-11">
          <mxGeometry relative="1" as="geometry">
            <mxPoint x="170" y="1270" as="targetPoint" />
          </mxGeometry>
        </mxCell>
        <mxCell id="GkkZgiXeQc9Gm0APtSh3-8" value="&lt;div&gt;耻辱&lt;/div&gt;&lt;div&gt;Prey&lt;/div&gt;&lt;div&gt;死亡循环&lt;br&gt;&lt;/div&gt;" style="rounded=0;whiteSpace=wrap;html=1;" vertex="1" parent="1">
          <mxGeometry x="110" y="1130" width="120" height="60" as="geometry" />
        </mxCell>
        <mxCell id="GkkZgiXeQc9Gm0APtSh3-11" value="诡野西部" style="rounded=0;whiteSpace=wrap;html=1;" vertex="1" parent="1">
          <mxGeometry x="110" y="1230" width="120" height="60" as="geometry" />
        </mxCell>
        <mxCell id="GkkZgiXeQc9Gm0APtSh3-24" style="edgeStyle=orthogonalEdgeStyle;rounded=0;orthogonalLoop=1;jettySize=auto;html=1;exitX=0.5;exitY=1;exitDx=0;exitDy=0;" edge="1" parent="1" source="GkkZgiXeQc9Gm0APtSh3-12" target="GkkZgiXeQc9Gm0APtSh3-15">
          <mxGeometry relative="1" as="geometry" />
        </mxCell>
        <mxCell id="GkkZgiXeQc9Gm0APtSh3-12" value="辐射3" style="rounded=0;whiteSpace=wrap;html=1;" vertex="1" parent="1">
          <mxGeometry x="418.75" y="1130" width="100" height="60" as="geometry" />
        </mxCell>
        <mxCell id="GkkZgiXeQc9Gm0APtSh3-15" value="辐射：新维加斯" style="rounded=0;whiteSpace=wrap;html=1;" vertex="1" parent="1">
          <mxGeometry x="421.25" y="1230" width="95" height="60" as="geometry" />
        </mxCell>
        <mxCell id="GkkZgiXeQc9Gm0APtSh3-17" value="异度系列" style="rounded=0;whiteSpace=wrap;html=1;" vertex="1" parent="1">
          <mxGeometry x="530" y="535" width="60" height="60" as="geometry" />
        </mxCell>
        <mxCell id="GkkZgiXeQc9Gm0APtSh3-22" value="龙腾世纪" style="rounded=0;whiteSpace=wrap;html=1;" vertex="1" parent="1">
          <mxGeometry x="1390.0000000000005" y="470" width="120" height="60" as="geometry" />
        </mxCell>
      </root>
    </mxGraphModel>
  </diagram>
</mxfile>
